<mxfile host="Electron" modified="2023-12-25T17:04:37.676Z" agent="Mozilla/5.0 (Windows NT 10.0; Win64; x64) AppleWebKit/537.36 (KHTML, like Gecko) draw.io/22.1.2 Chrome/114.0.5735.289 Electron/25.9.4 Safari/537.36" etag="QLEt3KWwSwhRtN1nYzmZ" version="22.1.2" type="device">
  <diagram id="C5RBs43oDa-KdzZeNtuy" name="Page-1">
    <mxGraphModel dx="675" dy="413" grid="1" gridSize="10" guides="1" tooltips="1" connect="1" arrows="1" fold="1" page="1" pageScale="1" pageWidth="1169" pageHeight="827" math="0" shadow="0">
      <root>
        <mxCell id="WIyWlLk6GJQsqaUBKTNV-0" />
        <mxCell id="WIyWlLk6GJQsqaUBKTNV-1" parent="WIyWlLk6GJQsqaUBKTNV-0" />
        <mxCell id="ggoOTJwChFo6t9gCOyDT-122" value="Chariot" style="swimlane;fontStyle=1;align=center;verticalAlign=top;childLayout=stackLayout;horizontal=1;startSize=26;horizontalStack=0;resizeParent=1;resizeParentMax=0;resizeLast=0;collapsible=1;marginBottom=0;whiteSpace=wrap;html=1;" parent="WIyWlLk6GJQsqaUBKTNV-1" vertex="1">
          <mxGeometry x="190" y="18" width="100" height="90" as="geometry" />
        </mxCell>
        <mxCell id="ggoOTJwChFo6t9gCOyDT-123" value="- code&lt;br&gt;- volume" style="text;strokeColor=none;fillColor=none;align=left;verticalAlign=top;spacingLeft=4;spacingRight=4;overflow=hidden;rotatable=0;points=[[0,0.5],[1,0.5]];portConstraint=eastwest;whiteSpace=wrap;html=1;" parent="ggoOTJwChFo6t9gCOyDT-122" vertex="1">
          <mxGeometry y="26" width="100" height="44" as="geometry" />
        </mxCell>
        <mxCell id="ggoOTJwChFo6t9gCOyDT-124" value="" style="line;strokeWidth=1;fillColor=none;align=left;verticalAlign=middle;spacingTop=-1;spacingLeft=3;spacingRight=3;rotatable=0;labelPosition=right;points=[];portConstraint=eastwest;strokeColor=inherit;" parent="ggoOTJwChFo6t9gCOyDT-122" vertex="1">
          <mxGeometry y="70" width="100" height="8" as="geometry" />
        </mxCell>
        <mxCell id="ggoOTJwChFo6t9gCOyDT-125" value="&amp;nbsp;" style="text;strokeColor=none;fillColor=none;align=left;verticalAlign=top;spacingLeft=4;spacingRight=4;overflow=hidden;rotatable=0;points=[[0,0.5],[1,0.5]];portConstraint=eastwest;whiteSpace=wrap;html=1;" parent="ggoOTJwChFo6t9gCOyDT-122" vertex="1">
          <mxGeometry y="78" width="100" height="12" as="geometry" />
        </mxCell>
        <mxCell id="ggoOTJwChFo6t9gCOyDT-130" value="" style="endArrow=none;html=1;rounded=0;entryX=1;entryY=0.5;entryDx=0;entryDy=0;exitX=0;exitY=0.5;exitDx=0;exitDy=0;strokeColor=#00CC00;" parent="WIyWlLk6GJQsqaUBKTNV-1" source="ggoOTJwChFo6t9gCOyDT-135" target="ggoOTJwChFo6t9gCOyDT-123" edge="1">
          <mxGeometry width="50" height="50" relative="1" as="geometry">
            <mxPoint x="400" y="63" as="sourcePoint" />
            <mxPoint x="399" y="-10" as="targetPoint" />
          </mxGeometry>
        </mxCell>
        <mxCell id="ggoOTJwChFo6t9gCOyDT-131" value="&lt;font color=&quot;#00cc00&quot;&gt;0,1&lt;/font&gt;" style="text;html=1;align=center;verticalAlign=middle;resizable=0;points=[];autosize=1;strokeColor=none;fillColor=none;" parent="WIyWlLk6GJQsqaUBKTNV-1" vertex="1">
          <mxGeometry x="365" y="40" width="40" height="30" as="geometry" />
        </mxCell>
        <mxCell id="ggoOTJwChFo6t9gCOyDT-132" value="&lt;font color=&quot;#00cc00&quot;&gt;0,1&lt;/font&gt;" style="text;html=1;align=center;verticalAlign=middle;resizable=0;points=[];autosize=1;strokeColor=none;fillColor=none;" parent="WIyWlLk6GJQsqaUBKTNV-1" vertex="1">
          <mxGeometry x="289" y="40" width="40" height="30" as="geometry" />
        </mxCell>
        <mxCell id="ggoOTJwChFo6t9gCOyDT-133" value="&lt;font color=&quot;#00cc00&quot;&gt;- vente en cours&lt;/font&gt;" style="text;html=1;align=center;verticalAlign=middle;resizable=0;points=[];autosize=1;strokeColor=none;fillColor=none;" parent="WIyWlLk6GJQsqaUBKTNV-1" vertex="1">
          <mxGeometry x="290" y="10" width="110" height="30" as="geometry" />
        </mxCell>
        <mxCell id="ggoOTJwChFo6t9gCOyDT-134" value="Vente" style="swimlane;fontStyle=1;align=center;verticalAlign=top;childLayout=stackLayout;horizontal=1;startSize=26;horizontalStack=0;resizeParent=1;resizeParentMax=0;resizeLast=0;collapsible=1;marginBottom=0;whiteSpace=wrap;html=1;fillColor=#d5e8d4;strokeColor=#82b366;fontColor=#00CC00;" parent="WIyWlLk6GJQsqaUBKTNV-1" vertex="1">
          <mxGeometry x="400" y="28" width="90" height="70" as="geometry" />
        </mxCell>
        <mxCell id="ggoOTJwChFo6t9gCOyDT-135" value="&lt;font color=&quot;#00cc00&quot;&gt;- etat&lt;/font&gt;" style="text;strokeColor=none;fillColor=none;align=left;verticalAlign=top;spacingLeft=4;spacingRight=4;overflow=hidden;rotatable=0;points=[[0,0.5],[1,0.5]];portConstraint=eastwest;whiteSpace=wrap;html=1;" parent="ggoOTJwChFo6t9gCOyDT-134" vertex="1">
          <mxGeometry y="26" width="90" height="24" as="geometry" />
        </mxCell>
        <mxCell id="ggoOTJwChFo6t9gCOyDT-136" value="" style="line;strokeWidth=1;fillColor=none;align=left;verticalAlign=middle;spacingTop=-1;spacingLeft=3;spacingRight=3;rotatable=0;labelPosition=right;points=[];portConstraint=eastwest;strokeColor=inherit;" parent="ggoOTJwChFo6t9gCOyDT-134" vertex="1">
          <mxGeometry y="50" width="90" height="8" as="geometry" />
        </mxCell>
        <mxCell id="ggoOTJwChFo6t9gCOyDT-137" value="&amp;nbsp;" style="text;strokeColor=none;fillColor=none;align=left;verticalAlign=top;spacingLeft=4;spacingRight=4;overflow=hidden;rotatable=0;points=[[0,0.5],[1,0.5]];portConstraint=eastwest;whiteSpace=wrap;html=1;" parent="ggoOTJwChFo6t9gCOyDT-134" vertex="1">
          <mxGeometry y="58" width="90" height="12" as="geometry" />
        </mxCell>
        <mxCell id="ggoOTJwChFo6t9gCOyDT-140" value="VenteAuStand" style="swimlane;fontStyle=1;align=center;verticalAlign=top;childLayout=stackLayout;horizontal=1;startSize=26;horizontalStack=0;resizeParent=1;resizeParentMax=0;resizeLast=0;collapsible=1;marginBottom=0;whiteSpace=wrap;html=1;" parent="WIyWlLk6GJQsqaUBKTNV-1" vertex="1">
          <mxGeometry x="388.5" y="163" width="113" height="80" as="geometry" />
        </mxCell>
        <mxCell id="ggoOTJwChFo6t9gCOyDT-141" value="&lt;font color=&quot;#ff0000&quot;&gt;&lt;strike&gt;- etat&lt;br&gt;- prixTotal&lt;/strike&gt;&lt;/font&gt;" style="text;strokeColor=none;fillColor=none;align=left;verticalAlign=top;spacingLeft=4;spacingRight=4;overflow=hidden;rotatable=0;points=[[0,0.5],[1,0.5]];portConstraint=eastwest;whiteSpace=wrap;html=1;" parent="ggoOTJwChFo6t9gCOyDT-140" vertex="1">
          <mxGeometry y="26" width="113" height="34" as="geometry" />
        </mxCell>
        <mxCell id="ggoOTJwChFo6t9gCOyDT-142" value="" style="line;strokeWidth=1;fillColor=none;align=left;verticalAlign=middle;spacingTop=-1;spacingLeft=3;spacingRight=3;rotatable=0;labelPosition=right;points=[];portConstraint=eastwest;strokeColor=inherit;" parent="ggoOTJwChFo6t9gCOyDT-140" vertex="1">
          <mxGeometry y="60" width="113" height="8" as="geometry" />
        </mxCell>
        <mxCell id="ggoOTJwChFo6t9gCOyDT-143" value="&amp;nbsp;" style="text;strokeColor=none;fillColor=none;align=left;verticalAlign=top;spacingLeft=4;spacingRight=4;overflow=hidden;rotatable=0;points=[[0,0.5],[1,0.5]];portConstraint=eastwest;whiteSpace=wrap;html=1;" parent="ggoOTJwChFo6t9gCOyDT-140" vertex="1">
          <mxGeometry y="68" width="113" height="12" as="geometry" />
        </mxCell>
        <mxCell id="ggoOTJwChFo6t9gCOyDT-145" value="" style="endArrow=none;html=1;rounded=0;entryX=0.5;entryY=0;entryDx=0;entryDy=0;exitX=0.5;exitY=1.078;exitDx=0;exitDy=0;exitPerimeter=0;fontColor=default;strokeColor=#00CC00;" parent="WIyWlLk6GJQsqaUBKTNV-1" source="ggoOTJwChFo6t9gCOyDT-137" target="ggoOTJwChFo6t9gCOyDT-140" edge="1">
          <mxGeometry width="50" height="50" relative="1" as="geometry">
            <mxPoint x="470" y="143" as="sourcePoint" />
            <mxPoint x="200" y="-119" as="targetPoint" />
          </mxGeometry>
        </mxCell>
        <mxCell id="ggoOTJwChFo6t9gCOyDT-146" value="&lt;font style=&quot;font-size: 24px;&quot;&gt;*&lt;/font&gt;" style="text;html=1;align=center;verticalAlign=middle;resizable=0;points=[];autosize=1;strokeColor=none;fillColor=none;fontColor=#00CC00;" parent="WIyWlLk6GJQsqaUBKTNV-1" vertex="1">
          <mxGeometry x="442" y="140" width="30" height="40" as="geometry" />
        </mxCell>
        <mxCell id="ggoOTJwChFo6t9gCOyDT-147" value="1" style="text;html=1;align=center;verticalAlign=middle;resizable=0;points=[];autosize=1;strokeColor=none;fillColor=none;fontColor=#00CC00;" parent="WIyWlLk6GJQsqaUBKTNV-1" vertex="1">
          <mxGeometry x="442" y="98" width="30" height="30" as="geometry" />
        </mxCell>
        <mxCell id="ggoOTJwChFo6t9gCOyDT-148" value="Article" style="swimlane;fontStyle=1;align=center;verticalAlign=top;childLayout=stackLayout;horizontal=1;startSize=26;horizontalStack=0;resizeParent=1;resizeParentMax=0;resizeLast=0;collapsible=1;marginBottom=0;whiteSpace=wrap;html=1;" parent="WIyWlLk6GJQsqaUBKTNV-1" vertex="1">
          <mxGeometry x="180" y="447" width="160" height="130" as="geometry" />
        </mxCell>
        <mxCell id="ggoOTJwChFo6t9gCOyDT-149" value="- codeUnique&lt;br&gt;- prix&lt;br&gt;- description&lt;br&gt;- nomAbrege&lt;br&gt;- marque" style="text;strokeColor=none;fillColor=none;align=left;verticalAlign=top;spacingLeft=4;spacingRight=4;overflow=hidden;rotatable=0;points=[[0,0.5],[1,0.5]];portConstraint=eastwest;whiteSpace=wrap;html=1;" parent="ggoOTJwChFo6t9gCOyDT-148" vertex="1">
          <mxGeometry y="26" width="160" height="84" as="geometry" />
        </mxCell>
        <mxCell id="ggoOTJwChFo6t9gCOyDT-150" value="" style="line;strokeWidth=1;fillColor=none;align=left;verticalAlign=middle;spacingTop=-1;spacingLeft=3;spacingRight=3;rotatable=0;labelPosition=right;points=[];portConstraint=eastwest;strokeColor=inherit;" parent="ggoOTJwChFo6t9gCOyDT-148" vertex="1">
          <mxGeometry y="110" width="160" height="8" as="geometry" />
        </mxCell>
        <mxCell id="ggoOTJwChFo6t9gCOyDT-151" value="&amp;nbsp;" style="text;strokeColor=none;fillColor=none;align=left;verticalAlign=top;spacingLeft=4;spacingRight=4;overflow=hidden;rotatable=0;points=[[0,0.5],[1,0.5]];portConstraint=eastwest;whiteSpace=wrap;html=1;" parent="ggoOTJwChFo6t9gCOyDT-148" vertex="1">
          <mxGeometry y="118" width="160" height="12" as="geometry" />
        </mxCell>
        <mxCell id="ggoOTJwChFo6t9gCOyDT-156" value="&amp;lt;&amp;lt;abstract&amp;gt;&amp;gt;&lt;br&gt;Employe" style="swimlane;fontStyle=1;align=center;verticalAlign=top;childLayout=stackLayout;horizontal=1;startSize=40;horizontalStack=0;resizeParent=1;resizeParentMax=0;resizeLast=0;collapsible=1;marginBottom=0;whiteSpace=wrap;html=1;" parent="WIyWlLk6GJQsqaUBKTNV-1" vertex="1">
          <mxGeometry x="641" y="193" width="129" height="130" as="geometry" />
        </mxCell>
        <mxCell id="ggoOTJwChFo6t9gCOyDT-157" value="- matricule&lt;br&gt;- nom&lt;br&gt;- prenom&lt;br&gt;&lt;font color=&quot;#ff0000&quot;&gt;&lt;strike&gt;- fonction&lt;/strike&gt;&lt;/font&gt;" style="text;strokeColor=none;fillColor=none;align=left;verticalAlign=top;spacingLeft=4;spacingRight=4;overflow=hidden;rotatable=0;points=[[0,0.5],[1,0.5]];portConstraint=eastwest;whiteSpace=wrap;html=1;" parent="ggoOTJwChFo6t9gCOyDT-156" vertex="1">
          <mxGeometry y="40" width="129" height="70" as="geometry" />
        </mxCell>
        <mxCell id="ggoOTJwChFo6t9gCOyDT-158" value="" style="line;strokeWidth=1;fillColor=none;align=left;verticalAlign=middle;spacingTop=-1;spacingLeft=3;spacingRight=3;rotatable=0;labelPosition=right;points=[];portConstraint=eastwest;strokeColor=inherit;" parent="ggoOTJwChFo6t9gCOyDT-156" vertex="1">
          <mxGeometry y="110" width="129" height="8" as="geometry" />
        </mxCell>
        <mxCell id="ggoOTJwChFo6t9gCOyDT-159" value="&amp;nbsp;" style="text;strokeColor=none;fillColor=none;align=left;verticalAlign=top;spacingLeft=4;spacingRight=4;overflow=hidden;rotatable=0;points=[[0,0.5],[1,0.5]];portConstraint=eastwest;whiteSpace=wrap;html=1;" parent="ggoOTJwChFo6t9gCOyDT-156" vertex="1">
          <mxGeometry y="118" width="129" height="12" as="geometry" />
        </mxCell>
        <mxCell id="ggoOTJwChFo6t9gCOyDT-191" style="edgeStyle=orthogonalEdgeStyle;rounded=0;orthogonalLoop=1;jettySize=auto;html=1;exitX=0.5;exitY=0;exitDx=0;exitDy=0;entryX=0.25;entryY=1;entryDx=0;entryDy=0;endArrow=block;endFill=0;" parent="WIyWlLk6GJQsqaUBKTNV-1" source="ggoOTJwChFo6t9gCOyDT-172" target="ggoOTJwChFo6t9gCOyDT-156" edge="1">
          <mxGeometry relative="1" as="geometry" />
        </mxCell>
        <mxCell id="ggoOTJwChFo6t9gCOyDT-172" value="Menuisier" style="swimlane;fontStyle=1;align=center;verticalAlign=top;childLayout=stackLayout;horizontal=1;startSize=30;horizontalStack=0;resizeParent=1;resizeParentMax=0;resizeLast=0;collapsible=1;marginBottom=0;whiteSpace=wrap;html=1;" parent="WIyWlLk6GJQsqaUBKTNV-1" vertex="1">
          <mxGeometry x="530" y="373" width="100" height="70" as="geometry" />
        </mxCell>
        <mxCell id="ggoOTJwChFo6t9gCOyDT-173" value="&amp;nbsp;" style="text;strokeColor=none;fillColor=none;align=left;verticalAlign=top;spacingLeft=4;spacingRight=4;overflow=hidden;rotatable=0;points=[[0,0.5],[1,0.5]];portConstraint=eastwest;whiteSpace=wrap;html=1;" parent="ggoOTJwChFo6t9gCOyDT-172" vertex="1">
          <mxGeometry y="30" width="100" height="20" as="geometry" />
        </mxCell>
        <mxCell id="ggoOTJwChFo6t9gCOyDT-174" value="" style="line;strokeWidth=1;fillColor=none;align=left;verticalAlign=middle;spacingTop=-1;spacingLeft=3;spacingRight=3;rotatable=0;labelPosition=right;points=[];portConstraint=eastwest;strokeColor=inherit;" parent="ggoOTJwChFo6t9gCOyDT-172" vertex="1">
          <mxGeometry y="50" width="100" height="8" as="geometry" />
        </mxCell>
        <mxCell id="ggoOTJwChFo6t9gCOyDT-175" value="&amp;nbsp;" style="text;strokeColor=none;fillColor=none;align=left;verticalAlign=top;spacingLeft=4;spacingRight=4;overflow=hidden;rotatable=0;points=[[0,0.5],[1,0.5]];portConstraint=eastwest;whiteSpace=wrap;html=1;" parent="ggoOTJwChFo6t9gCOyDT-172" vertex="1">
          <mxGeometry y="58" width="100" height="12" as="geometry" />
        </mxCell>
        <mxCell id="ggoOTJwChFo6t9gCOyDT-177" value="Caissier" style="swimlane;fontStyle=1;align=center;verticalAlign=top;childLayout=stackLayout;horizontal=1;startSize=30;horizontalStack=0;resizeParent=1;resizeParentMax=0;resizeLast=0;collapsible=1;marginBottom=0;whiteSpace=wrap;html=1;" parent="WIyWlLk6GJQsqaUBKTNV-1" vertex="1">
          <mxGeometry x="655" y="373" width="100" height="70" as="geometry" />
        </mxCell>
        <mxCell id="ggoOTJwChFo6t9gCOyDT-178" value="&amp;nbsp;" style="text;strokeColor=none;fillColor=none;align=left;verticalAlign=top;spacingLeft=4;spacingRight=4;overflow=hidden;rotatable=0;points=[[0,0.5],[1,0.5]];portConstraint=eastwest;whiteSpace=wrap;html=1;" parent="ggoOTJwChFo6t9gCOyDT-177" vertex="1">
          <mxGeometry y="30" width="100" height="20" as="geometry" />
        </mxCell>
        <mxCell id="ggoOTJwChFo6t9gCOyDT-179" value="" style="line;strokeWidth=1;fillColor=none;align=left;verticalAlign=middle;spacingTop=-1;spacingLeft=3;spacingRight=3;rotatable=0;labelPosition=right;points=[];portConstraint=eastwest;strokeColor=inherit;" parent="ggoOTJwChFo6t9gCOyDT-177" vertex="1">
          <mxGeometry y="50" width="100" height="8" as="geometry" />
        </mxCell>
        <mxCell id="ggoOTJwChFo6t9gCOyDT-180" value="&amp;nbsp;" style="text;strokeColor=none;fillColor=none;align=left;verticalAlign=top;spacingLeft=4;spacingRight=4;overflow=hidden;rotatable=0;points=[[0,0.5],[1,0.5]];portConstraint=eastwest;whiteSpace=wrap;html=1;" parent="ggoOTJwChFo6t9gCOyDT-177" vertex="1">
          <mxGeometry y="58" width="100" height="12" as="geometry" />
        </mxCell>
        <mxCell id="ggoOTJwChFo6t9gCOyDT-181" value="Vendeur" style="swimlane;fontStyle=1;align=center;verticalAlign=top;childLayout=stackLayout;horizontal=1;startSize=30;horizontalStack=0;resizeParent=1;resizeParentMax=0;resizeLast=0;collapsible=1;marginBottom=0;whiteSpace=wrap;html=1;" parent="WIyWlLk6GJQsqaUBKTNV-1" vertex="1">
          <mxGeometry x="790" y="373" width="100" height="70" as="geometry" />
        </mxCell>
        <mxCell id="ggoOTJwChFo6t9gCOyDT-182" value="&amp;nbsp;" style="text;strokeColor=none;fillColor=none;align=left;verticalAlign=top;spacingLeft=4;spacingRight=4;overflow=hidden;rotatable=0;points=[[0,0.5],[1,0.5]];portConstraint=eastwest;whiteSpace=wrap;html=1;" parent="ggoOTJwChFo6t9gCOyDT-181" vertex="1">
          <mxGeometry y="30" width="100" height="20" as="geometry" />
        </mxCell>
        <mxCell id="ggoOTJwChFo6t9gCOyDT-183" value="" style="line;strokeWidth=1;fillColor=none;align=left;verticalAlign=middle;spacingTop=-1;spacingLeft=3;spacingRight=3;rotatable=0;labelPosition=right;points=[];portConstraint=eastwest;strokeColor=inherit;" parent="ggoOTJwChFo6t9gCOyDT-181" vertex="1">
          <mxGeometry y="50" width="100" height="8" as="geometry" />
        </mxCell>
        <mxCell id="ggoOTJwChFo6t9gCOyDT-184" value="&amp;nbsp;" style="text;strokeColor=none;fillColor=none;align=left;verticalAlign=top;spacingLeft=4;spacingRight=4;overflow=hidden;rotatable=0;points=[[0,0.5],[1,0.5]];portConstraint=eastwest;whiteSpace=wrap;html=1;" parent="ggoOTJwChFo6t9gCOyDT-181" vertex="1">
          <mxGeometry y="58" width="100" height="12" as="geometry" />
        </mxCell>
        <mxCell id="ggoOTJwChFo6t9gCOyDT-190" style="edgeStyle=orthogonalEdgeStyle;rounded=0;orthogonalLoop=1;jettySize=auto;html=1;entryX=0.497;entryY=1.019;entryDx=0;entryDy=0;entryPerimeter=0;endArrow=block;endFill=0;" parent="WIyWlLk6GJQsqaUBKTNV-1" source="ggoOTJwChFo6t9gCOyDT-177" target="ggoOTJwChFo6t9gCOyDT-159" edge="1">
          <mxGeometry relative="1" as="geometry" />
        </mxCell>
        <mxCell id="ggoOTJwChFo6t9gCOyDT-192" style="edgeStyle=orthogonalEdgeStyle;rounded=0;orthogonalLoop=1;jettySize=auto;html=1;exitX=0.5;exitY=0;exitDx=0;exitDy=0;entryX=0.733;entryY=0.99;entryDx=0;entryDy=0;entryPerimeter=0;endArrow=block;endFill=0;" parent="WIyWlLk6GJQsqaUBKTNV-1" source="ggoOTJwChFo6t9gCOyDT-181" target="ggoOTJwChFo6t9gCOyDT-159" edge="1">
          <mxGeometry relative="1" as="geometry" />
        </mxCell>
        <mxCell id="ggoOTJwChFo6t9gCOyDT-193" value="" style="endArrow=none;html=1;rounded=0;entryX=0;entryY=0;entryDx=0;entryDy=0;exitX=1;exitY=0.5;exitDx=0;exitDy=0;strokeColor=#00CC00;" parent="WIyWlLk6GJQsqaUBKTNV-1" source="ggoOTJwChFo6t9gCOyDT-143" target="ggoOTJwChFo6t9gCOyDT-172" edge="1">
          <mxGeometry width="50" height="50" relative="1" as="geometry">
            <mxPoint x="560" y="253" as="sourcePoint" />
            <mxPoint x="820" y="736" as="targetPoint" />
          </mxGeometry>
        </mxCell>
        <mxCell id="ggoOTJwChFo6t9gCOyDT-194" value="&lt;font color=&quot;#00cc00&quot; style=&quot;font-size: 24px;&quot;&gt;*&lt;/font&gt;" style="text;html=1;align=center;verticalAlign=middle;resizable=0;points=[];autosize=1;strokeColor=none;fillColor=none;" parent="WIyWlLk6GJQsqaUBKTNV-1" vertex="1">
          <mxGeometry x="500" y="213" width="30" height="40" as="geometry" />
        </mxCell>
        <mxCell id="ggoOTJwChFo6t9gCOyDT-195" value="&lt;font color=&quot;#00cc00&quot;&gt;1&lt;/font&gt;" style="text;html=1;align=center;verticalAlign=middle;resizable=0;points=[];autosize=1;strokeColor=none;fillColor=none;" parent="WIyWlLk6GJQsqaUBKTNV-1" vertex="1">
          <mxGeometry x="530" y="343" width="30" height="30" as="geometry" />
        </mxCell>
        <mxCell id="ggoOTJwChFo6t9gCOyDT-196" value="Avertissement" style="swimlane;fontStyle=1;align=center;verticalAlign=top;childLayout=stackLayout;horizontal=1;startSize=26;horizontalStack=0;resizeParent=1;resizeParentMax=0;resizeLast=0;collapsible=1;marginBottom=0;whiteSpace=wrap;html=1;" parent="WIyWlLk6GJQsqaUBKTNV-1" vertex="1">
          <mxGeometry x="940" y="30" width="110" height="70" as="geometry" />
        </mxCell>
        <mxCell id="ggoOTJwChFo6t9gCOyDT-197" value="&amp;nbsp;" style="text;strokeColor=none;fillColor=none;align=left;verticalAlign=top;spacingLeft=4;spacingRight=4;overflow=hidden;rotatable=0;points=[[0,0.5],[1,0.5]];portConstraint=eastwest;whiteSpace=wrap;html=1;" parent="ggoOTJwChFo6t9gCOyDT-196" vertex="1">
          <mxGeometry y="26" width="110" height="24" as="geometry" />
        </mxCell>
        <mxCell id="ggoOTJwChFo6t9gCOyDT-198" value="" style="line;strokeWidth=1;fillColor=none;align=left;verticalAlign=middle;spacingTop=-1;spacingLeft=3;spacingRight=3;rotatable=0;labelPosition=right;points=[];portConstraint=eastwest;strokeColor=inherit;" parent="ggoOTJwChFo6t9gCOyDT-196" vertex="1">
          <mxGeometry y="50" width="110" height="8" as="geometry" />
        </mxCell>
        <mxCell id="ggoOTJwChFo6t9gCOyDT-199" value="&amp;nbsp;" style="text;strokeColor=none;fillColor=none;align=left;verticalAlign=top;spacingLeft=4;spacingRight=4;overflow=hidden;rotatable=0;points=[[0,0.5],[1,0.5]];portConstraint=eastwest;whiteSpace=wrap;html=1;" parent="ggoOTJwChFo6t9gCOyDT-196" vertex="1">
          <mxGeometry y="58" width="110" height="12" as="geometry" />
        </mxCell>
        <mxCell id="ggoOTJwChFo6t9gCOyDT-200" value="" style="endArrow=none;html=1;rounded=0;entryX=0;entryY=0.5;entryDx=0;entryDy=0;exitX=1;exitY=0.5;exitDx=0;exitDy=0;fontColor=default;strokeColor=#00CC00;" parent="WIyWlLk6GJQsqaUBKTNV-1" source="ggoOTJwChFo6t9gCOyDT-135" target="ggoOTJwChFo6t9gCOyDT-197" edge="1">
          <mxGeometry width="50" height="50" relative="1" as="geometry">
            <mxPoint x="512" y="274" as="sourcePoint" />
            <mxPoint x="540" y="383" as="targetPoint" />
          </mxGeometry>
        </mxCell>
        <mxCell id="ggoOTJwChFo6t9gCOyDT-201" value="1" style="text;html=1;align=center;verticalAlign=middle;resizable=0;points=[];autosize=1;strokeColor=none;fillColor=none;fontColor=#00CC00;" parent="WIyWlLk6GJQsqaUBKTNV-1" vertex="1">
          <mxGeometry x="490" y="40" width="30" height="30" as="geometry" />
        </mxCell>
        <mxCell id="ggoOTJwChFo6t9gCOyDT-202" value="&lt;font color=&quot;#00cc00&quot; style=&quot;font-size: 24px;&quot;&gt;*&lt;/font&gt;" style="text;html=1;align=center;verticalAlign=middle;resizable=0;points=[];autosize=1;strokeColor=none;fillColor=none;" parent="WIyWlLk6GJQsqaUBKTNV-1" vertex="1">
          <mxGeometry x="910" y="40" width="30" height="40" as="geometry" />
        </mxCell>
        <mxCell id="ggoOTJwChFo6t9gCOyDT-203" value="" style="endArrow=none;html=1;rounded=0;exitX=0.189;exitY=1.056;exitDx=0;exitDy=0;exitPerimeter=0;entryX=0.475;entryY=0.99;entryDx=0;entryDy=0;entryPerimeter=0;fontColor=default;strokeColor=#00CC00;" parent="WIyWlLk6GJQsqaUBKTNV-1" source="ggoOTJwChFo6t9gCOyDT-199" target="ggoOTJwChFo6t9gCOyDT-175" edge="1">
          <mxGeometry width="50" height="50" relative="1" as="geometry">
            <mxPoint x="995" y="133" as="sourcePoint" />
            <mxPoint x="580" y="503" as="targetPoint" />
            <Array as="points">
              <mxPoint x="961" y="483" />
              <mxPoint x="790" y="483" />
              <mxPoint x="578" y="483" />
            </Array>
          </mxGeometry>
        </mxCell>
        <mxCell id="ggoOTJwChFo6t9gCOyDT-207" value="&lt;font color=&quot;#00cc00&quot; style=&quot;font-size: 24px;&quot;&gt;*&lt;/font&gt;" style="text;html=1;align=center;verticalAlign=middle;resizable=0;points=[];autosize=1;strokeColor=none;fillColor=none;" parent="WIyWlLk6GJQsqaUBKTNV-1" vertex="1">
          <mxGeometry x="934" y="110" width="30" height="40" as="geometry" />
        </mxCell>
        <mxCell id="ggoOTJwChFo6t9gCOyDT-208" value="&lt;font color=&quot;#00cc00&quot;&gt;1&lt;/font&gt;" style="text;html=1;align=center;verticalAlign=middle;resizable=0;points=[];autosize=1;strokeColor=none;fillColor=none;" parent="WIyWlLk6GJQsqaUBKTNV-1" vertex="1">
          <mxGeometry x="580" y="443" width="30" height="30" as="geometry" />
        </mxCell>
        <mxCell id="ggoOTJwChFo6t9gCOyDT-209" value="" style="endArrow=none;html=1;rounded=0;exitX=0.639;exitY=1.186;exitDx=0;exitDy=0;exitPerimeter=0;entryX=1;entryY=0.5;entryDx=0;entryDy=0;strokeColor=#00CC00;" parent="WIyWlLk6GJQsqaUBKTNV-1" source="ggoOTJwChFo6t9gCOyDT-199" target="ggoOTJwChFo6t9gCOyDT-211" edge="1">
          <mxGeometry width="50" height="50" relative="1" as="geometry">
            <mxPoint x="971" y="121" as="sourcePoint" />
            <mxPoint x="460" y="527" as="targetPoint" />
            <Array as="points">
              <mxPoint x="1010" y="527" />
              <mxPoint x="1010" y="581" />
              <mxPoint x="790" y="581" />
              <mxPoint x="590" y="581" />
            </Array>
          </mxGeometry>
        </mxCell>
        <mxCell id="ggoOTJwChFo6t9gCOyDT-210" value="Stand" style="swimlane;fontStyle=1;align=center;verticalAlign=top;childLayout=stackLayout;horizontal=1;startSize=26;horizontalStack=0;resizeParent=1;resizeParentMax=0;resizeLast=0;collapsible=1;marginBottom=0;whiteSpace=wrap;html=1;fillColor=default;strokeColor=default;" parent="WIyWlLk6GJQsqaUBKTNV-1" vertex="1">
          <mxGeometry x="420" y="543" width="110" height="70" as="geometry" />
        </mxCell>
        <mxCell id="ggoOTJwChFo6t9gCOyDT-211" value="&amp;nbsp;" style="text;strokeColor=none;fillColor=none;align=left;verticalAlign=top;spacingLeft=4;spacingRight=4;overflow=hidden;rotatable=0;points=[[0,0.5],[1,0.5]];portConstraint=eastwest;whiteSpace=wrap;html=1;" parent="ggoOTJwChFo6t9gCOyDT-210" vertex="1">
          <mxGeometry y="26" width="110" height="24" as="geometry" />
        </mxCell>
        <mxCell id="ggoOTJwChFo6t9gCOyDT-212" value="" style="line;strokeWidth=1;fillColor=none;align=left;verticalAlign=middle;spacingTop=-1;spacingLeft=3;spacingRight=3;rotatable=0;labelPosition=right;points=[];portConstraint=eastwest;strokeColor=inherit;" parent="ggoOTJwChFo6t9gCOyDT-210" vertex="1">
          <mxGeometry y="50" width="110" height="8" as="geometry" />
        </mxCell>
        <mxCell id="ggoOTJwChFo6t9gCOyDT-213" value="&amp;nbsp;" style="text;strokeColor=none;fillColor=none;align=left;verticalAlign=top;spacingLeft=4;spacingRight=4;overflow=hidden;rotatable=0;points=[[0,0.5],[1,0.5]];portConstraint=eastwest;whiteSpace=wrap;html=1;" parent="ggoOTJwChFo6t9gCOyDT-210" vertex="1">
          <mxGeometry y="58" width="110" height="12" as="geometry" />
        </mxCell>
        <mxCell id="ggoOTJwChFo6t9gCOyDT-215" value="&lt;font color=&quot;#00cc00&quot;&gt;1&lt;/font&gt;" style="text;html=1;align=center;verticalAlign=middle;resizable=0;points=[];autosize=1;strokeColor=none;fillColor=none;" parent="WIyWlLk6GJQsqaUBKTNV-1" vertex="1">
          <mxGeometry x="530" y="544" width="30" height="30" as="geometry" />
        </mxCell>
        <mxCell id="ggoOTJwChFo6t9gCOyDT-216" value="" style="endArrow=none;html=1;rounded=0;entryX=1;entryY=0;entryDx=0;entryDy=0;exitX=0.003;exitY=0.925;exitDx=0;exitDy=0;exitPerimeter=0;strokeColor=#00CC00;" parent="WIyWlLk6GJQsqaUBKTNV-1" source="ggoOTJwChFo6t9gCOyDT-175" target="ggoOTJwChFo6t9gCOyDT-210" edge="1">
          <mxGeometry width="50" height="50" relative="1" as="geometry">
            <mxPoint x="512" y="274" as="sourcePoint" />
            <mxPoint x="540" y="383" as="targetPoint" />
          </mxGeometry>
        </mxCell>
        <mxCell id="ggoOTJwChFo6t9gCOyDT-217" value="&lt;font color=&quot;#00cc00&quot; style=&quot;font-size: 24px;&quot;&gt;*&lt;/font&gt;" style="text;html=1;align=center;verticalAlign=middle;resizable=0;points=[];autosize=1;strokeColor=none;fillColor=none;" parent="WIyWlLk6GJQsqaUBKTNV-1" vertex="1">
          <mxGeometry x="501.5" y="443" width="30" height="40" as="geometry" />
        </mxCell>
        <mxCell id="ggoOTJwChFo6t9gCOyDT-218" value="&lt;font color=&quot;#00cc00&quot;&gt;1&lt;/font&gt;" style="text;html=1;align=center;verticalAlign=middle;resizable=0;points=[];autosize=1;strokeColor=none;fillColor=none;" parent="WIyWlLk6GJQsqaUBKTNV-1" vertex="1">
          <mxGeometry x="499" y="514" width="30" height="30" as="geometry" />
        </mxCell>
        <mxCell id="ggoOTJwChFo6t9gCOyDT-219" value="LigneVente&lt;font color=&quot;#00cc00&quot;&gt;AuStand&lt;/font&gt;" style="swimlane;fontStyle=1;align=center;verticalAlign=top;childLayout=stackLayout;horizontal=1;startSize=26;horizontalStack=0;resizeParent=1;resizeParentMax=0;resizeLast=0;collapsible=1;marginBottom=0;whiteSpace=wrap;html=1;" parent="WIyWlLk6GJQsqaUBKTNV-1" vertex="1">
          <mxGeometry x="185" y="269" width="150" height="90" as="geometry" />
        </mxCell>
        <mxCell id="ggoOTJwChFo6t9gCOyDT-220" value="- quantite&lt;br&gt;- prix&lt;font color=&quot;#00cc00&quot;&gt;Unitaire&lt;/font&gt;" style="text;strokeColor=none;fillColor=none;align=left;verticalAlign=top;spacingLeft=4;spacingRight=4;overflow=hidden;rotatable=0;points=[[0,0.5],[1,0.5]];portConstraint=eastwest;whiteSpace=wrap;html=1;" parent="ggoOTJwChFo6t9gCOyDT-219" vertex="1">
          <mxGeometry y="26" width="150" height="44" as="geometry" />
        </mxCell>
        <mxCell id="ggoOTJwChFo6t9gCOyDT-221" value="" style="line;strokeWidth=1;fillColor=none;align=left;verticalAlign=middle;spacingTop=-1;spacingLeft=3;spacingRight=3;rotatable=0;labelPosition=right;points=[];portConstraint=eastwest;strokeColor=inherit;" parent="ggoOTJwChFo6t9gCOyDT-219" vertex="1">
          <mxGeometry y="70" width="150" height="8" as="geometry" />
        </mxCell>
        <mxCell id="ggoOTJwChFo6t9gCOyDT-222" value="&amp;nbsp;" style="text;strokeColor=none;fillColor=none;align=left;verticalAlign=top;spacingLeft=4;spacingRight=4;overflow=hidden;rotatable=0;points=[[0,0.5],[1,0.5]];portConstraint=eastwest;whiteSpace=wrap;html=1;" parent="ggoOTJwChFo6t9gCOyDT-219" vertex="1">
          <mxGeometry y="78" width="150" height="12" as="geometry" />
        </mxCell>
        <mxCell id="ggoOTJwChFo6t9gCOyDT-225" value="" style="endArrow=none;html=1;rounded=0;entryX=0.75;entryY=0;entryDx=0;entryDy=0;exitX=0;exitY=0.5;exitDx=0;exitDy=0;" parent="WIyWlLk6GJQsqaUBKTNV-1" source="ggoOTJwChFo6t9gCOyDT-143" target="ggoOTJwChFo6t9gCOyDT-219" edge="1">
          <mxGeometry width="50" height="50" relative="1" as="geometry">
            <mxPoint x="512" y="244" as="sourcePoint" />
            <mxPoint x="540" y="383" as="targetPoint" />
          </mxGeometry>
        </mxCell>
        <mxCell id="ggoOTJwChFo6t9gCOyDT-226" value="&lt;font style=&quot;font-size: 12px;&quot;&gt;1 ... *&lt;/font&gt;" style="text;html=1;align=center;verticalAlign=middle;resizable=0;points=[];autosize=1;strokeColor=none;fillColor=none;" parent="WIyWlLk6GJQsqaUBKTNV-1" vertex="1">
          <mxGeometry x="250" y="242" width="50" height="30" as="geometry" />
        </mxCell>
        <mxCell id="ggoOTJwChFo6t9gCOyDT-227" value="1" style="text;html=1;align=center;verticalAlign=middle;resizable=0;points=[];autosize=1;strokeColor=none;fillColor=none;" parent="WIyWlLk6GJQsqaUBKTNV-1" vertex="1">
          <mxGeometry x="358.5" y="203" width="30" height="30" as="geometry" />
        </mxCell>
        <mxCell id="ggoOTJwChFo6t9gCOyDT-228" value="" style="endArrow=none;html=1;rounded=0;entryX=0.5;entryY=0;entryDx=0;entryDy=0;" parent="WIyWlLk6GJQsqaUBKTNV-1" source="ggoOTJwChFo6t9gCOyDT-222" target="ggoOTJwChFo6t9gCOyDT-148" edge="1">
          <mxGeometry width="50" height="50" relative="1" as="geometry">
            <mxPoint x="399" y="244" as="sourcePoint" />
            <mxPoint x="308" y="279" as="targetPoint" />
          </mxGeometry>
        </mxCell>
        <mxCell id="ggoOTJwChFo6t9gCOyDT-229" value="1" style="text;html=1;align=center;verticalAlign=middle;resizable=0;points=[];autosize=1;strokeColor=none;fillColor=none;" parent="WIyWlLk6GJQsqaUBKTNV-1" vertex="1">
          <mxGeometry x="225" y="417" width="30" height="30" as="geometry" />
        </mxCell>
        <mxCell id="ggoOTJwChFo6t9gCOyDT-230" value="&lt;font style=&quot;font-size: 24px;&quot;&gt;&lt;strike&gt;&lt;font color=&quot;#ff0000&quot;&gt;1&lt;/font&gt;&lt;/strike&gt; &lt;font color=&quot;#00cc00&quot;&gt;*&lt;/font&gt;&lt;/font&gt;" style="text;html=1;align=center;verticalAlign=middle;resizable=0;points=[];autosize=1;strokeColor=none;fillColor=none;" parent="WIyWlLk6GJQsqaUBKTNV-1" vertex="1">
          <mxGeometry x="210" y="359" width="50" height="40" as="geometry" />
        </mxCell>
        <mxCell id="ggoOTJwChFo6t9gCOyDT-231" value="" style="endArrow=none;html=1;rounded=0;entryX=0;entryY=0.5;entryDx=0;entryDy=0;exitX=0.996;exitY=0.817;exitDx=0;exitDy=0;exitPerimeter=0;strokeColor=#00CC00;" parent="WIyWlLk6GJQsqaUBKTNV-1" edge="1">
          <mxGeometry width="50" height="50" relative="1" as="geometry">
            <mxPoint x="339.3599999999999" y="561.628" as="sourcePoint" />
            <mxPoint x="420" y="561" as="targetPoint" />
          </mxGeometry>
        </mxCell>
        <mxCell id="ggoOTJwChFo6t9gCOyDT-232" value="&lt;font color=&quot;#00cc00&quot; style=&quot;font-size: 24px;&quot;&gt;*&lt;/font&gt;" style="text;html=1;align=center;verticalAlign=middle;resizable=0;points=[];autosize=1;strokeColor=none;fillColor=none;" parent="WIyWlLk6GJQsqaUBKTNV-1" vertex="1">
          <mxGeometry x="340" y="533" width="30" height="40" as="geometry" />
        </mxCell>
        <mxCell id="ggoOTJwChFo6t9gCOyDT-233" value="&lt;font color=&quot;#00cc00&quot;&gt;1&lt;/font&gt;" style="text;html=1;align=center;verticalAlign=middle;resizable=0;points=[];autosize=1;strokeColor=none;fillColor=none;" parent="WIyWlLk6GJQsqaUBKTNV-1" vertex="1">
          <mxGeometry x="388.5" y="535" width="30" height="30" as="geometry" />
        </mxCell>
        <mxCell id="VPD5eAHSCe6dA4Wa4jN0-1" value="&lt;font color=&quot;#00cc00&quot; style=&quot;font-size: 24px;&quot;&gt;*&lt;/font&gt;" style="text;html=1;align=center;verticalAlign=middle;resizable=0;points=[];autosize=1;strokeColor=none;fillColor=none;" parent="WIyWlLk6GJQsqaUBKTNV-1" vertex="1">
          <mxGeometry x="1010" y="110" width="30" height="40" as="geometry" />
        </mxCell>
        <mxCell id="p2gKq7WdlTFjcQ7852XD-0" value="" style="endArrow=none;html=1;rounded=0;entryX=1;entryY=0.5;entryDx=0;entryDy=0;exitX=0;exitY=0;exitDx=0;exitDy=0;strokeColor=#FF0000;fontColor=default;" edge="1" parent="WIyWlLk6GJQsqaUBKTNV-1" source="ggoOTJwChFo6t9gCOyDT-140" target="ggoOTJwChFo6t9gCOyDT-125">
          <mxGeometry width="50" height="50" relative="1" as="geometry">
            <mxPoint x="410" y="76" as="sourcePoint" />
            <mxPoint x="300" y="76" as="targetPoint" />
          </mxGeometry>
        </mxCell>
        <mxCell id="p2gKq7WdlTFjcQ7852XD-1" value="&lt;font color=&quot;#ff0000&quot; style=&quot;font-size: 16px;&quot;&gt;X&lt;/font&gt;" style="edgeLabel;html=1;align=center;verticalAlign=middle;resizable=0;points=[];" vertex="1" connectable="0" parent="p2gKq7WdlTFjcQ7852XD-0">
          <mxGeometry x="0.0009" relative="1" as="geometry">
            <mxPoint as="offset" />
          </mxGeometry>
        </mxCell>
        <mxCell id="p2gKq7WdlTFjcQ7852XD-2" value="&lt;font style=&quot;font-size: 24px;&quot; color=&quot;#ff0000&quot;&gt;*&lt;/font&gt;" style="text;html=1;align=center;verticalAlign=middle;resizable=0;points=[];autosize=1;strokeColor=none;fillColor=none;" vertex="1" parent="WIyWlLk6GJQsqaUBKTNV-1">
          <mxGeometry x="375" y="128" width="30" height="40" as="geometry" />
        </mxCell>
        <mxCell id="p2gKq7WdlTFjcQ7852XD-3" value="&lt;font color=&quot;#ff0000&quot;&gt;&lt;strike&gt;1&lt;/strike&gt;&lt;/font&gt;" style="text;html=1;align=center;verticalAlign=middle;resizable=0;points=[];autosize=1;strokeColor=none;fillColor=none;" vertex="1" parent="WIyWlLk6GJQsqaUBKTNV-1">
          <mxGeometry x="284" y="83" width="30" height="30" as="geometry" />
        </mxCell>
        <mxCell id="p2gKq7WdlTFjcQ7852XD-4" value="Bois" style="swimlane;fontStyle=1;align=center;verticalAlign=top;childLayout=stackLayout;horizontal=1;startSize=26;horizontalStack=0;resizeParent=1;resizeParentMax=0;resizeLast=0;collapsible=1;marginBottom=0;whiteSpace=wrap;html=1;fillColor=#f8cecc;strokeColor=#b85450;fontColor=#FF0000;" vertex="1" parent="WIyWlLk6GJQsqaUBKTNV-1">
          <mxGeometry x="110" y="610" width="70" height="60" as="geometry" />
        </mxCell>
        <mxCell id="p2gKq7WdlTFjcQ7852XD-5" value="&amp;nbsp;" style="text;strokeColor=none;fillColor=none;align=left;verticalAlign=top;spacingLeft=4;spacingRight=4;overflow=hidden;rotatable=0;points=[[0,0.5],[1,0.5]];portConstraint=eastwest;whiteSpace=wrap;html=1;fontColor=#FF0000;" vertex="1" parent="p2gKq7WdlTFjcQ7852XD-4">
          <mxGeometry y="26" width="70" height="14" as="geometry" />
        </mxCell>
        <mxCell id="p2gKq7WdlTFjcQ7852XD-6" value="" style="line;strokeWidth=1;fillColor=none;align=left;verticalAlign=middle;spacingTop=-1;spacingLeft=3;spacingRight=3;rotatable=0;labelPosition=right;points=[];portConstraint=eastwest;strokeColor=inherit;fontColor=#FF0000;" vertex="1" parent="p2gKq7WdlTFjcQ7852XD-4">
          <mxGeometry y="40" width="70" height="8" as="geometry" />
        </mxCell>
        <mxCell id="p2gKq7WdlTFjcQ7852XD-7" value="&amp;nbsp;" style="text;strokeColor=none;fillColor=none;align=left;verticalAlign=top;spacingLeft=4;spacingRight=4;overflow=hidden;rotatable=0;points=[[0,0.5],[1,0.5]];portConstraint=eastwest;whiteSpace=wrap;html=1;fontColor=#FF0000;" vertex="1" parent="p2gKq7WdlTFjcQ7852XD-4">
          <mxGeometry y="48" width="70" height="12" as="geometry" />
        </mxCell>
        <mxCell id="p2gKq7WdlTFjcQ7852XD-8" value="Outil" style="swimlane;fontStyle=1;align=center;verticalAlign=top;childLayout=stackLayout;horizontal=1;startSize=26;horizontalStack=0;resizeParent=1;resizeParentMax=0;resizeLast=0;collapsible=1;marginBottom=0;whiteSpace=wrap;html=1;fillColor=#f8cecc;strokeColor=#b85450;fontColor=#FF0000;" vertex="1" parent="WIyWlLk6GJQsqaUBKTNV-1">
          <mxGeometry x="190" y="610" width="70" height="60" as="geometry" />
        </mxCell>
        <mxCell id="p2gKq7WdlTFjcQ7852XD-9" value="&amp;nbsp;" style="text;strokeColor=none;fillColor=none;align=left;verticalAlign=top;spacingLeft=4;spacingRight=4;overflow=hidden;rotatable=0;points=[[0,0.5],[1,0.5]];portConstraint=eastwest;whiteSpace=wrap;html=1;fontColor=#FF0000;" vertex="1" parent="p2gKq7WdlTFjcQ7852XD-8">
          <mxGeometry y="26" width="70" height="14" as="geometry" />
        </mxCell>
        <mxCell id="p2gKq7WdlTFjcQ7852XD-10" value="" style="line;strokeWidth=1;fillColor=none;align=left;verticalAlign=middle;spacingTop=-1;spacingLeft=3;spacingRight=3;rotatable=0;labelPosition=right;points=[];portConstraint=eastwest;strokeColor=inherit;fontColor=#FF0000;" vertex="1" parent="p2gKq7WdlTFjcQ7852XD-8">
          <mxGeometry y="40" width="70" height="8" as="geometry" />
        </mxCell>
        <mxCell id="p2gKq7WdlTFjcQ7852XD-11" value="&amp;nbsp;" style="text;strokeColor=none;fillColor=none;align=left;verticalAlign=top;spacingLeft=4;spacingRight=4;overflow=hidden;rotatable=0;points=[[0,0.5],[1,0.5]];portConstraint=eastwest;whiteSpace=wrap;html=1;fontColor=#FF0000;" vertex="1" parent="p2gKq7WdlTFjcQ7852XD-8">
          <mxGeometry y="48" width="70" height="12" as="geometry" />
        </mxCell>
        <mxCell id="p2gKq7WdlTFjcQ7852XD-12" value="Vetement" style="swimlane;fontStyle=1;align=center;verticalAlign=top;childLayout=stackLayout;horizontal=1;startSize=26;horizontalStack=0;resizeParent=1;resizeParentMax=0;resizeLast=0;collapsible=1;marginBottom=0;whiteSpace=wrap;html=1;fillColor=#f8cecc;strokeColor=#b85450;fontColor=#FF0000;" vertex="1" parent="WIyWlLk6GJQsqaUBKTNV-1">
          <mxGeometry x="288.5" y="610" width="70" height="60" as="geometry" />
        </mxCell>
        <mxCell id="p2gKq7WdlTFjcQ7852XD-13" value="&amp;nbsp;" style="text;strokeColor=none;fillColor=none;align=left;verticalAlign=top;spacingLeft=4;spacingRight=4;overflow=hidden;rotatable=0;points=[[0,0.5],[1,0.5]];portConstraint=eastwest;whiteSpace=wrap;html=1;fontColor=#FF0000;" vertex="1" parent="p2gKq7WdlTFjcQ7852XD-12">
          <mxGeometry y="26" width="70" height="14" as="geometry" />
        </mxCell>
        <mxCell id="p2gKq7WdlTFjcQ7852XD-14" value="" style="line;strokeWidth=1;fillColor=none;align=left;verticalAlign=middle;spacingTop=-1;spacingLeft=3;spacingRight=3;rotatable=0;labelPosition=right;points=[];portConstraint=eastwest;strokeColor=inherit;fontColor=#FF0000;" vertex="1" parent="p2gKq7WdlTFjcQ7852XD-12">
          <mxGeometry y="40" width="70" height="8" as="geometry" />
        </mxCell>
        <mxCell id="p2gKq7WdlTFjcQ7852XD-15" value="&amp;nbsp;" style="text;strokeColor=none;fillColor=none;align=left;verticalAlign=top;spacingLeft=4;spacingRight=4;overflow=hidden;rotatable=0;points=[[0,0.5],[1,0.5]];portConstraint=eastwest;whiteSpace=wrap;html=1;fontColor=#FF0000;" vertex="1" parent="p2gKq7WdlTFjcQ7852XD-12">
          <mxGeometry y="48" width="70" height="12" as="geometry" />
        </mxCell>
        <mxCell id="p2gKq7WdlTFjcQ7852XD-16" value="BoisConstruction" style="swimlane;fontStyle=1;align=center;verticalAlign=top;childLayout=stackLayout;horizontal=1;startSize=26;horizontalStack=0;resizeParent=1;resizeParentMax=0;resizeLast=0;collapsible=1;marginBottom=0;whiteSpace=wrap;html=1;fillColor=#f8cecc;strokeColor=#b85450;fontColor=#FF0000;" vertex="1" parent="WIyWlLk6GJQsqaUBKTNV-1">
          <mxGeometry x="60" y="730" width="120" height="60" as="geometry" />
        </mxCell>
        <mxCell id="p2gKq7WdlTFjcQ7852XD-17" value="&amp;nbsp;" style="text;strokeColor=none;fillColor=none;align=left;verticalAlign=top;spacingLeft=4;spacingRight=4;overflow=hidden;rotatable=0;points=[[0,0.5],[1,0.5]];portConstraint=eastwest;whiteSpace=wrap;html=1;fontColor=#FF0000;" vertex="1" parent="p2gKq7WdlTFjcQ7852XD-16">
          <mxGeometry y="26" width="120" height="14" as="geometry" />
        </mxCell>
        <mxCell id="p2gKq7WdlTFjcQ7852XD-18" value="" style="line;strokeWidth=1;fillColor=none;align=left;verticalAlign=middle;spacingTop=-1;spacingLeft=3;spacingRight=3;rotatable=0;labelPosition=right;points=[];portConstraint=eastwest;strokeColor=inherit;fontColor=#FF0000;" vertex="1" parent="p2gKq7WdlTFjcQ7852XD-16">
          <mxGeometry y="40" width="120" height="8" as="geometry" />
        </mxCell>
        <mxCell id="p2gKq7WdlTFjcQ7852XD-19" value="&amp;nbsp;" style="text;strokeColor=none;fillColor=none;align=left;verticalAlign=top;spacingLeft=4;spacingRight=4;overflow=hidden;rotatable=0;points=[[0,0.5],[1,0.5]];portConstraint=eastwest;whiteSpace=wrap;html=1;fontColor=#FF0000;" vertex="1" parent="p2gKq7WdlTFjcQ7852XD-16">
          <mxGeometry y="48" width="120" height="12" as="geometry" />
        </mxCell>
        <mxCell id="p2gKq7WdlTFjcQ7852XD-20" value="BoisMenuiserie" style="swimlane;fontStyle=1;align=center;verticalAlign=top;childLayout=stackLayout;horizontal=1;startSize=26;horizontalStack=0;resizeParent=1;resizeParentMax=0;resizeLast=0;collapsible=1;marginBottom=0;whiteSpace=wrap;html=1;fillColor=#f8cecc;strokeColor=#b85450;fontColor=#FF0000;" vertex="1" parent="WIyWlLk6GJQsqaUBKTNV-1">
          <mxGeometry x="190" y="730" width="110" height="60" as="geometry" />
        </mxCell>
        <mxCell id="p2gKq7WdlTFjcQ7852XD-21" value="&amp;nbsp;" style="text;strokeColor=none;fillColor=none;align=left;verticalAlign=top;spacingLeft=4;spacingRight=4;overflow=hidden;rotatable=0;points=[[0,0.5],[1,0.5]];portConstraint=eastwest;whiteSpace=wrap;html=1;fontColor=#FF0000;" vertex="1" parent="p2gKq7WdlTFjcQ7852XD-20">
          <mxGeometry y="26" width="110" height="14" as="geometry" />
        </mxCell>
        <mxCell id="p2gKq7WdlTFjcQ7852XD-22" value="" style="line;strokeWidth=1;fillColor=none;align=left;verticalAlign=middle;spacingTop=-1;spacingLeft=3;spacingRight=3;rotatable=0;labelPosition=right;points=[];portConstraint=eastwest;strokeColor=inherit;fontColor=#FF0000;" vertex="1" parent="p2gKq7WdlTFjcQ7852XD-20">
          <mxGeometry y="40" width="110" height="8" as="geometry" />
        </mxCell>
        <mxCell id="p2gKq7WdlTFjcQ7852XD-23" value="&amp;nbsp;" style="text;strokeColor=none;fillColor=none;align=left;verticalAlign=top;spacingLeft=4;spacingRight=4;overflow=hidden;rotatable=0;points=[[0,0.5],[1,0.5]];portConstraint=eastwest;whiteSpace=wrap;html=1;fontColor=#FF0000;" vertex="1" parent="p2gKq7WdlTFjcQ7852XD-20">
          <mxGeometry y="48" width="110" height="12" as="geometry" />
        </mxCell>
        <mxCell id="p2gKq7WdlTFjcQ7852XD-24" value="BoisEchafaudage" style="swimlane;fontStyle=1;align=center;verticalAlign=top;childLayout=stackLayout;horizontal=1;startSize=26;horizontalStack=0;resizeParent=1;resizeParentMax=0;resizeLast=0;collapsible=1;marginBottom=0;whiteSpace=wrap;html=1;fillColor=#f8cecc;strokeColor=#b85450;fontColor=#FF0000;" vertex="1" parent="WIyWlLk6GJQsqaUBKTNV-1">
          <mxGeometry x="314" y="730" width="115" height="60" as="geometry" />
        </mxCell>
        <mxCell id="p2gKq7WdlTFjcQ7852XD-25" value="&amp;nbsp;" style="text;strokeColor=none;fillColor=none;align=left;verticalAlign=top;spacingLeft=4;spacingRight=4;overflow=hidden;rotatable=0;points=[[0,0.5],[1,0.5]];portConstraint=eastwest;whiteSpace=wrap;html=1;fontColor=#FF0000;" vertex="1" parent="p2gKq7WdlTFjcQ7852XD-24">
          <mxGeometry y="26" width="115" height="14" as="geometry" />
        </mxCell>
        <mxCell id="p2gKq7WdlTFjcQ7852XD-26" value="" style="line;strokeWidth=1;fillColor=none;align=left;verticalAlign=middle;spacingTop=-1;spacingLeft=3;spacingRight=3;rotatable=0;labelPosition=right;points=[];portConstraint=eastwest;strokeColor=inherit;fontColor=#FF0000;" vertex="1" parent="p2gKq7WdlTFjcQ7852XD-24">
          <mxGeometry y="40" width="115" height="8" as="geometry" />
        </mxCell>
        <mxCell id="p2gKq7WdlTFjcQ7852XD-27" value="&amp;nbsp;" style="text;strokeColor=none;fillColor=none;align=left;verticalAlign=top;spacingLeft=4;spacingRight=4;overflow=hidden;rotatable=0;points=[[0,0.5],[1,0.5]];portConstraint=eastwest;whiteSpace=wrap;html=1;fontColor=#FF0000;" vertex="1" parent="p2gKq7WdlTFjcQ7852XD-24">
          <mxGeometry y="48" width="115" height="12" as="geometry" />
        </mxCell>
        <mxCell id="p2gKq7WdlTFjcQ7852XD-28" value="" style="endArrow=block;html=1;rounded=0;endFill=0;entryX=0.29;entryY=1.043;entryDx=0;entryDy=0;entryPerimeter=0;exitX=0.584;exitY=0.008;exitDx=0;exitDy=0;strokeColor=#FF0000;exitPerimeter=0;" edge="1" parent="WIyWlLk6GJQsqaUBKTNV-1">
          <mxGeometry width="50" height="50" relative="1" as="geometry">
            <mxPoint x="130.07999999999998" y="730.0000000000001" as="sourcePoint" />
            <mxPoint x="130.3" y="670.036" as="targetPoint" />
            <Array as="points">
              <mxPoint x="130" y="719.52" />
            </Array>
          </mxGeometry>
        </mxCell>
        <mxCell id="p2gKq7WdlTFjcQ7852XD-39" value="&lt;font color=&quot;#ff0000&quot; style=&quot;font-size: 16px;&quot;&gt;X&lt;/font&gt;" style="edgeLabel;html=1;align=center;verticalAlign=middle;resizable=0;points=[];" vertex="1" connectable="0" parent="p2gKq7WdlTFjcQ7852XD-28">
          <mxGeometry x="0.0941" y="1" relative="1" as="geometry">
            <mxPoint as="offset" />
          </mxGeometry>
        </mxCell>
        <mxCell id="p2gKq7WdlTFjcQ7852XD-29" value="" style="endArrow=block;html=1;rounded=0;endFill=0;entryX=0.477;entryY=1.009;entryDx=0;entryDy=0;entryPerimeter=0;exitX=0.273;exitY=-0.011;exitDx=0;exitDy=0;strokeColor=#FF0000;exitPerimeter=0;" edge="1" parent="WIyWlLk6GJQsqaUBKTNV-1" source="p2gKq7WdlTFjcQ7852XD-20" target="p2gKq7WdlTFjcQ7852XD-7">
          <mxGeometry width="50" height="50" relative="1" as="geometry">
            <mxPoint x="130" y="770" as="sourcePoint" />
            <mxPoint x="138" y="682" as="targetPoint" />
            <Array as="points">
              <mxPoint x="220" y="720" />
              <mxPoint x="143" y="720" />
            </Array>
          </mxGeometry>
        </mxCell>
        <mxCell id="p2gKq7WdlTFjcQ7852XD-40" value="&lt;font color=&quot;#ff0000&quot; style=&quot;font-size: 16px;&quot;&gt;X&lt;/font&gt;" style="edgeLabel;html=1;align=center;verticalAlign=middle;resizable=0;points=[];" vertex="1" connectable="0" parent="p2gKq7WdlTFjcQ7852XD-29">
          <mxGeometry x="-0.3109" y="1" relative="1" as="geometry">
            <mxPoint as="offset" />
          </mxGeometry>
        </mxCell>
        <mxCell id="p2gKq7WdlTFjcQ7852XD-30" value="" style="endArrow=block;html=1;rounded=0;endFill=0;exitX=0.25;exitY=0;exitDx=0;exitDy=0;strokeColor=#FF0000;" edge="1" parent="WIyWlLk6GJQsqaUBKTNV-1" source="p2gKq7WdlTFjcQ7852XD-24">
          <mxGeometry width="50" height="50" relative="1" as="geometry">
            <mxPoint x="255" y="770" as="sourcePoint" />
            <mxPoint x="160" y="670" as="targetPoint" />
            <Array as="points">
              <mxPoint x="343" y="700" />
              <mxPoint x="160" y="700" />
            </Array>
          </mxGeometry>
        </mxCell>
        <mxCell id="p2gKq7WdlTFjcQ7852XD-41" value="&lt;font color=&quot;#ff0000&quot; style=&quot;font-size: 16px;&quot;&gt;X&lt;/font&gt;" style="edgeLabel;html=1;align=center;verticalAlign=middle;resizable=0;points=[];" vertex="1" connectable="0" parent="p2gKq7WdlTFjcQ7852XD-30">
          <mxGeometry x="-0.0553" y="-1" relative="1" as="geometry">
            <mxPoint as="offset" />
          </mxGeometry>
        </mxCell>
        <mxCell id="p2gKq7WdlTFjcQ7852XD-32" value="" style="endArrow=block;html=1;rounded=0;endFill=0;exitX=0.25;exitY=0;exitDx=0;exitDy=0;entryX=0.786;entryY=1.017;entryDx=0;entryDy=0;entryPerimeter=0;strokeColor=#FF0000;" edge="1" parent="WIyWlLk6GJQsqaUBKTNV-1" source="p2gKq7WdlTFjcQ7852XD-12" target="ggoOTJwChFo6t9gCOyDT-151">
          <mxGeometry width="50" height="50" relative="1" as="geometry">
            <mxPoint x="353" y="770" as="sourcePoint" />
            <mxPoint x="300" y="580" as="targetPoint" />
            <Array as="points">
              <mxPoint x="306" y="600" />
              <mxPoint x="306" y="590" />
            </Array>
          </mxGeometry>
        </mxCell>
        <mxCell id="p2gKq7WdlTFjcQ7852XD-35" value="&lt;font color=&quot;#ff0000&quot; style=&quot;font-size: 16px;&quot;&gt;X&lt;/font&gt;" style="edgeLabel;html=1;align=center;verticalAlign=middle;resizable=0;points=[];" vertex="1" connectable="0" parent="p2gKq7WdlTFjcQ7852XD-32">
          <mxGeometry x="-0.1782" y="1" relative="1" as="geometry">
            <mxPoint as="offset" />
          </mxGeometry>
        </mxCell>
        <mxCell id="p2gKq7WdlTFjcQ7852XD-33" value="" style="endArrow=block;html=1;rounded=0;endFill=0;exitX=0.5;exitY=0;exitDx=0;exitDy=0;entryX=0.282;entryY=1.083;entryDx=0;entryDy=0;entryPerimeter=0;strokeColor=#FF0000;" edge="1" parent="WIyWlLk6GJQsqaUBKTNV-1">
          <mxGeometry width="50" height="50" relative="1" as="geometry">
            <mxPoint x="244.99999999999994" y="610.0000000000001" as="sourcePoint" />
            <mxPoint x="245.11999999999995" y="577.9960000000001" as="targetPoint" />
            <Array as="points">
              <mxPoint x="245" y="600" />
              <mxPoint x="245" y="590" />
            </Array>
          </mxGeometry>
        </mxCell>
        <mxCell id="p2gKq7WdlTFjcQ7852XD-37" value="&lt;font color=&quot;#ff0000&quot; style=&quot;font-size: 16px;&quot;&gt;X&lt;/font&gt;" style="edgeLabel;html=1;align=center;verticalAlign=middle;resizable=0;points=[];" vertex="1" connectable="0" parent="p2gKq7WdlTFjcQ7852XD-33">
          <mxGeometry x="-0.2174" relative="1" as="geometry">
            <mxPoint as="offset" />
          </mxGeometry>
        </mxCell>
        <mxCell id="p2gKq7WdlTFjcQ7852XD-34" value="" style="endArrow=block;html=1;rounded=0;endFill=0;exitX=0.5;exitY=0;exitDx=0;exitDy=0;entryX=0.186;entryY=0.987;entryDx=0;entryDy=0;entryPerimeter=0;strokeColor=#FF0000;" edge="1" parent="WIyWlLk6GJQsqaUBKTNV-1" target="ggoOTJwChFo6t9gCOyDT-151">
          <mxGeometry width="50" height="50" relative="1" as="geometry">
            <mxPoint x="154.99999999999994" y="610.0000000000001" as="sourcePoint" />
            <mxPoint x="155.11999999999995" y="577.9960000000001" as="targetPoint" />
            <Array as="points">
              <mxPoint x="155" y="600" />
              <mxPoint x="210" y="600" />
            </Array>
          </mxGeometry>
        </mxCell>
        <mxCell id="p2gKq7WdlTFjcQ7852XD-38" value="&lt;font color=&quot;#ff0000&quot; style=&quot;font-size: 16px;&quot;&gt;X&lt;/font&gt;" style="edgeLabel;html=1;align=center;verticalAlign=middle;resizable=0;points=[];" vertex="1" connectable="0" parent="p2gKq7WdlTFjcQ7852XD-34">
          <mxGeometry x="0.0479" relative="1" as="geometry">
            <mxPoint as="offset" />
          </mxGeometry>
        </mxCell>
        <mxCell id="p2gKq7WdlTFjcQ7852XD-44" value="" style="endArrow=none;html=1;rounded=0;exitX=0.49;exitY=1.056;exitDx=0;exitDy=0;fontColor=default;strokeColor=#FF0000;exitPerimeter=0;entryX=0.53;entryY=1.194;entryDx=0;entryDy=0;entryPerimeter=0;" edge="1" parent="WIyWlLk6GJQsqaUBKTNV-1" source="ggoOTJwChFo6t9gCOyDT-143" target="ggoOTJwChFo6t9gCOyDT-184">
          <mxGeometry width="50" height="50" relative="1" as="geometry">
            <mxPoint x="500" y="76" as="sourcePoint" />
            <mxPoint x="840" y="510" as="targetPoint" />
            <Array as="points">
              <mxPoint x="444" y="520" />
              <mxPoint x="843" y="520" />
            </Array>
          </mxGeometry>
        </mxCell>
        <mxCell id="p2gKq7WdlTFjcQ7852XD-46" value="&lt;font color=&quot;#ff0000&quot; style=&quot;font-size: 16px;&quot;&gt;X&lt;/font&gt;" style="edgeLabel;html=1;align=center;verticalAlign=middle;resizable=0;points=[];" vertex="1" connectable="0" parent="p2gKq7WdlTFjcQ7852XD-44">
          <mxGeometry x="-0.3511" y="2" relative="1" as="geometry">
            <mxPoint as="offset" />
          </mxGeometry>
        </mxCell>
        <mxCell id="p2gKq7WdlTFjcQ7852XD-47" value="&lt;font style=&quot;font-size: 24px;&quot; color=&quot;#ff0000&quot;&gt;*&lt;/font&gt;" style="text;html=1;align=center;verticalAlign=middle;resizable=0;points=[];autosize=1;strokeColor=none;fillColor=none;" vertex="1" parent="WIyWlLk6GJQsqaUBKTNV-1">
          <mxGeometry x="412" y="243" width="30" height="40" as="geometry" />
        </mxCell>
        <mxCell id="p2gKq7WdlTFjcQ7852XD-48" value="&lt;font color=&quot;#ff0000&quot;&gt;&lt;strike&gt;1&lt;/strike&gt;&lt;/font&gt;" style="text;html=1;align=center;verticalAlign=middle;resizable=0;points=[];autosize=1;strokeColor=none;fillColor=none;" vertex="1" parent="WIyWlLk6GJQsqaUBKTNV-1">
          <mxGeometry x="840" y="443" width="30" height="30" as="geometry" />
        </mxCell>
        <mxCell id="p2gKq7WdlTFjcQ7852XD-49" value="" style="endArrow=none;html=1;rounded=0;exitX=0.497;exitY=1.194;exitDx=0;exitDy=0;fontColor=default;strokeColor=#FF0000;exitPerimeter=0;entryX=0.436;entryY=1.167;entryDx=0;entryDy=0;entryPerimeter=0;" edge="1" parent="WIyWlLk6GJQsqaUBKTNV-1" source="ggoOTJwChFo6t9gCOyDT-180" target="ggoOTJwChFo6t9gCOyDT-199">
          <mxGeometry width="50" height="50" relative="1" as="geometry">
            <mxPoint x="454" y="254" as="sourcePoint" />
            <mxPoint x="853" y="455" as="targetPoint" />
            <Array as="points">
              <mxPoint x="705" y="500" />
              <mxPoint x="988" y="500" />
            </Array>
          </mxGeometry>
        </mxCell>
        <mxCell id="p2gKq7WdlTFjcQ7852XD-50" value="&lt;font color=&quot;#ff0000&quot; style=&quot;font-size: 16px;&quot;&gt;X&lt;/font&gt;" style="edgeLabel;html=1;align=center;verticalAlign=middle;resizable=0;points=[];" vertex="1" connectable="0" parent="p2gKq7WdlTFjcQ7852XD-49">
          <mxGeometry x="-0.3511" y="2" relative="1" as="geometry">
            <mxPoint x="-25" y="-10" as="offset" />
          </mxGeometry>
        </mxCell>
        <mxCell id="p2gKq7WdlTFjcQ7852XD-51" value="&lt;font color=&quot;#ff0000&quot; style=&quot;font-size: 24px;&quot;&gt;*&lt;/font&gt;" style="text;html=1;align=center;verticalAlign=middle;resizable=0;points=[];autosize=1;strokeColor=none;fillColor=none;" vertex="1" parent="WIyWlLk6GJQsqaUBKTNV-1">
          <mxGeometry x="703" y="441" width="30" height="40" as="geometry" />
        </mxCell>
        <mxCell id="p2gKq7WdlTFjcQ7852XD-57" value="&lt;font color=&quot;#ff0000&quot;&gt;1&lt;/font&gt;" style="text;html=1;align=center;verticalAlign=middle;resizable=0;points=[];autosize=1;strokeColor=none;fillColor=none;" vertex="1" parent="WIyWlLk6GJQsqaUBKTNV-1">
          <mxGeometry x="980" y="100" width="30" height="30" as="geometry" />
        </mxCell>
      </root>
    </mxGraphModel>
  </diagram>
</mxfile>
